<?xml version="1.0" encoding="utf-8"?>
<!-- Generator: Adobe Illustrator 24.2.0, SVG Export Plug-In . SVG Version: 6.00 Build 0)  -->
<svg version="1.1" id="Camada_1" xmlns="http://www.w3.org/2000/svg" xmlns:xlink="http://www.w3.org/1999/xlink" x="0px" y="0px"
	 viewBox="0 0 595.28 841.89" style="enable-background:new 0 0 595.28 841.89;" xml:space="preserve">
<g>
	<g>
		<path d="M274.42,463.98c1.81,6.35,3.23,12.34,1.45,18.55c-0.94-4.43-1.01-8.97-2.23-13.35c-1.12-4.05-3.01-6.87-7.3-8.59
			c-12.14-4.88-22.17-12.82-30.45-22.93c-1.53-1.87-3.24-3.22-5.53-4.2c-9.95-4.24-20.41-7.34-29.67-13.16
			c-5.46-3.43-9.69-7.52-11.28-11.56c10.76,11.97,25.72,15.59,40.9,21.31c-6.06-10.05-9.75-19.76-11.44-30.19
			c-2.75-17.02-0.19-33.25,7.32-48.73c1.71-3.53,2.97-3.77,6.01-1.57c4.13,3,8.52,5.63,13.35,7.24c2.4,0.8,2.53,1.46,1.43,3.53
			c-5.72,10.78-7.54,22.24-6.15,34.38c3.51,30.64,33.57,54.1,64.17,49.88c40.42-5.58,62.55-46.42,45.05-83.29
			c-1.32-2.77-0.82-4.07,2.01-4.89c4.93-1.42,9.52-3.63,13.57-6.74c2.46-1.89,3.51-1.05,4.65,1.36c11.39,24.22,11.3,48.35-0.4,72.43
			c-0.58,1.2-1.57,2.24-1.54,4.06c12.62-4.29,25.02-8.54,34.28-18.75c-1.49,4.19-4.82,6.78-8.13,9.28
			c-7.96,6.01-17.3,9.26-26.47,12.79c-2.08,0.8-3.69,1.86-5.01,3.63c-10.33,13.96-23.8,23.63-40.27,29.03
			c-2.22,0.73-3.18,1.97-3.87,4.01c-1.64,4.88-1.94,9.95-2.67,15c-1.98-5.68-0.32-11.28,0.72-17.2c-2,0.34-3.67,0.65-5.36,0.89
			c-1.49,0.21-2.09,0.96-2.09,2.5c-0.01,6.49-0.05,12.97-0.21,19.46c-0.05,2.05,0.8,2.53,2.65,2.48c4.23-0.1,8.47-0.08,12.71-0.01
			c4.7,0.07,7.43,2.52,7.91,7.21c0.24,2.35,0.16,4.73,0.13,7.1c-0.08,5.88-2.76,8.57-8.76,8.71c-3.86,0.09-7.74,0.11-11.6-0.01
			c-2.08-0.07-2.89,0.6-2.82,2.75c0.13,3.99,0.1,7.98,0.01,11.97c-0.14,5.79-2.46,7.96-8.38,8.01c-2.12,0.02-4.24,0.02-6.36,0
			c-5.34-0.04-7.78-2.28-7.98-7.63c-0.15-4.11-0.13-8.23,0-12.35c0.07-2.09-0.59-2.86-2.74-2.79c-4.24,0.13-8.48,0.14-12.72,0
			c-5.3-0.18-7.32-2.44-7.29-7.77c0.01-2.62-0.04-5.24,0.05-7.86c0.17-4.95,2.53-7.29,7.44-7.36c4.24-0.06,8.48-0.11,12.72,0.03
			c2.19,0.07,3.11-0.48,3.05-2.88c-0.15-6.23-0.12-12.47-0.01-18.71c0.03-1.92-0.72-2.62-2.48-2.94
			C281.5,465.54,278.23,464.78,274.42,463.98z"/>
		<path d="M297.03,306.48c18.3,0.03,33.74,4.85,47.24,14.83c6.65,4.91,13.21,10.15,18.15,17.06c2.04,2.85,1.44,4.67-1,6.57
			c-3.98,3.1-8.7,4.75-13.26,6.63c-2.45,1.01-4.64-0.5-6.51-2.54c-11.82-12.99-26.63-19.48-44.15-19.28
			c-16.65,0.19-30.76,6.55-42.17,18.72c-2.59,2.76-4.91,4.17-8.85,1.75c-3.63-2.23-7.89-3.35-11.5-5.88
			c-2.84-1.99-2.7-3.71-0.79-6.08c6.61-8.19,14.07-15.48,23.25-20.71C270.14,310.34,283.76,306.34,297.03,306.48z"/>
		<path d="M221,470.65c-10.77,6.58-33.37-1.4-35.3-13.05c4.11,6.76,9.75,9.5,16.12,11.13C207.92,470.31,214.19,470.47,221,470.65z"
			/>
		<path d="M370.93,470.71c13.34-0.67,26.3-0.39,35.19-12.33C404.6,469.16,382.34,477.12,370.93,470.71z"/>
		<path d="M204.88,441.13c-11.44,0.54-26.11-15.05-24.43-25.96C183.62,428.32,194,434.69,204.88,441.13z"/>
		<path d="M411.28,414.45c3.3,10.13-12.09,26.91-24.15,26.76c5.51-3.47,10.72-6.51,15.17-10.65
			C406.87,426.32,409.86,421.21,411.28,414.45z"/>
		<path d="M209.52,455.19c-9.36,2.25-23.89-6.07-26.88-15.52C190.58,447.47,199.01,453.13,209.52,455.19z"/>
		<path d="M382.49,455.18c10.48-2.09,18.97-7.66,26.95-15.67C406.28,449.19,391.75,457.49,382.49,455.18z"/>
		<path d="M387.93,479.12c-3.41,6.36-23.2,8.9-30.16,1.03C368.33,483.72,378,482.99,387.93,479.12z"/>
		<path d="M233.42,480.62c-5.97,7.33-25.73,4.97-29.35-1.46C213.98,482.86,223.6,483.89,233.42,480.62z"/>
		<path d="M256.84,483.48c-3.87,8.31-14.32,12.33-21.88,8.46c4.21-1.03,8.24-0.84,11.92-2.32
			C250.56,488.14,253.48,485.48,256.84,483.48z"/>
		<path d="M357.15,491.89c-7.65,3.93-18.1-0.09-22.01-8.44c3.25,1.93,6.11,4.54,9.64,6.02C348.53,491.03,352.57,491,357.15,491.89z"
			/>
	</g>
</g>
</svg>
