<?xml version="1.0" encoding="utf-8"?>
<!-- Generator: Adobe Illustrator 24.2.0, SVG Export Plug-In . SVG Version: 6.00 Build 0)  -->
<svg version="1.1" id="Camada_1" xmlns="http://www.w3.org/2000/svg" xmlns:xlink="http://www.w3.org/1999/xlink" x="0px" y="0px"
	 viewBox="0 0 595.28 841.89" style="enable-background:new 0 0 595.28 841.89;" xml:space="preserve">
<style type="text/css">
	.st0{fill:#FEFEFD;}
	.st1{fill:#020202;}
	.st2{fill:#ECB318;}
</style>
<g>
	<g>
		<path class="st0" d="M110.07,608.82c0-123.83,0.01-247.66-0.07-371.49c0-2.81,0.63-3.44,3.44-3.44
			c122.71,0.08,245.42,0.08,368.13,0c2.8,0,3.44,0.63,3.44,3.44c-0.08,122.71-0.08,245.42,0,368.13c0,2.8-0.63,3.44-3.44,3.44
			C357.73,608.81,233.9,608.82,110.07,608.82z M406.07,441.15c-0.64-0.2-0.79,0-0.45,0.57c-7.72,6.62-16.07,11.91-27.18,12.16
			c8.46,4.74,24.56-3.44,28.22-11.49c0.47-0.34,0.94-0.68,1.41-1.03c1.49-0.64,1.66-1.81,1.43-3.42c-1.4,0.41-2.46,0.81-2.45,2.37
			C406.72,440.59,406.4,440.87,406.07,441.15z M184.44,441.14c-0.32-0.28-0.64-0.56-0.96-0.83c0-1.55-1.06-1.96-2.68-2.44
			c0.23,1.58,0.02,2.9,1.65,3.49c0.47,0.34,0.94,0.68,1.4,1.03c3.92,8.6,21.3,16.49,27.66,11.38c-10.73-0.14-18.93-5.54-26.61-12.05
			C185.22,441.15,185.09,440.94,184.44,441.14z M188.83,408.16c-0.22-0.23-0.44-0.45-0.65-0.68c-0.09,0.09-0.26,0.24-0.25,0.25
			c0.19,0.24,0.39,0.47,0.6,0.71c0.71,3.24,3,5.17,5.64,6.81c0.97,0.78,1.91,1.58,2.9,2.33c7.8,5.93,16.97,9.03,25.94,12.52
			c5.45,2.12,10.62,4.21,14.41,9.27c4.33,5.78,10.18,10.16,16.21,14.21c5.18,3.48,10.98,5.73,16.46,8.58
			c4.05,8.78,4,18.17,4.06,27.54c-0.87,0.05-1.74,0.12-2.61,0.13c-5.9,0.09-8.11,2.25-8.2,8.09c-0.04,2.37-0.01,4.73-0.03,7.1
			c-0.04,5.47,2.04,7.7,7.58,7.83c4.23,0.1,8.47,0.13,12.7-0.02c2.01-0.07,2.53,0.62,2.47,2.53c-0.13,4.11-0.12,8.22-0.01,12.33
			c0.15,5.57,2.55,7.87,8.06,7.9c2.24,0.01,4.48,0.02,6.73,0c5.41-0.06,7.78-2.28,7.94-7.65c0.12-4.11,0.13-8.22-0.01-12.33
			c-0.07-2.06,0.45-2.84,2.65-2.75c4.1,0.17,8.22,0.16,12.33,0.01c5.49-0.2,8.11-2.97,8.21-8.46c0.04-2.36,0.12-4.75-0.09-7.09
			c-0.43-4.88-3.19-7.39-8.05-7.45c-3.98-0.05-7.97-0.16-11.94,0.04c-2.52,0.13-3.48-0.46-3.35-3.21
			c0.28-5.72,0.18-11.46,0.24-17.19c0.04-3.89,3.42-5.74,7.52-4.12c-2.93,7.1-2.23,14.33-0.89,21.61c1.54-7.51,1.1-15.3,3.64-22.63
			c0.26-0.41,0.52-0.83,0.78-1.24c0,0,0.01,0,0.01,0c1.2-0.28,2.44-0.45,3.6-0.85c15.62-5.34,28.36-14.68,38.31-27.8
			c1.64-2.16,3.51-3.54,6.1-4.53c10.04-3.83,20.3-7.32,28.53-14.69c3.13-2.02,5.69-4.48,6.35-8.37c0.19-0.11,0.38-0.21,0.57-0.32
			c-0.12-0.12-0.23-0.25-0.35-0.37c-0.11,0.19-0.21,0.39-0.32,0.58c-3.02,1.83-5.21,4.42-6.86,7.5c-0.48,0.1-1.06,0.06-1.43,0.32
			c-7.5,5.15-15.84,8.49-24.38,11.41c-0.88,0.3-1.65,0.77-2.3,0c-0.43-0.51,0.22-1.05,0.51-1.58c9.01-16.7,11.86-34.41,8.34-53.05
			c-1.59-8.42-3.92-16.63-8.92-23.79c0.5-0.85,0.92-1.76,1.5-2.55c3.66-4.96,3.45-10.67-0.32-15.35c-2.4-2.97-5.37-5.12-8.69-6.85
			c-8.34-4.35-17.27-6.83-26.49-8.37c-10.74-5.7-22.26-8.36-34.34-8.64c-13.82-0.33-26.84,2.79-39.06,9.27
			c-0.62-0.26-1.15-0.11-1.62,0.34c-0.15,0.09-0.29,0.2-0.41,0.33c-10.45,1-19.97,4.59-28.4,10.78c-5.42,3.98-9.29,11.31-3.36,18.69
			c0.52,0.65,0.77,1.53,1.15,2.3c-1.18,0.83-1.66,2.14-2.23,3.37c-11.59,24.89-10.95,49.51,1.64,73.86
			c0.58,1.12,1.68,2.08,1.38,3.97c-11.62-3.9-22.91-7.81-33.01-14.48C193.62,411.7,191.51,409.63,188.83,408.16z M211.46,483.55
			c1.1,0.22,2.2,0.43,3.3,0.65c1.39,1.05,2.87,1.12,4.44,0.46c1.21-0.09,2.42-0.19,3.63-0.28c0.5,0.8,0.85,0.63,1.11-0.17
			c0.84-0.19,1.67-0.38,2.51-0.56c1.1,0.48,1.96,0.18,2.61-0.81c1.26-0.65,2.54-1.27,3.78-1.97c0.37-0.21,0.83-0.71,0.18-1.06
			c-0.35-0.19-0.91,0.01-1.37,0.04c-0.07-0.16-0.17-0.46-0.21-0.46c-0.33,0.06-0.64,0.19-0.26,0.59c-1.36,0.36-2.73,0.72-4.09,1.08
			c-0.71-0.5-1.39-0.83-1.74,0.37c-1.73,0.12-3.46,0.24-5.19,0.36c-0.41-0.61-0.81-0.52-1.2,0.01c-1.11-0.13-2.23-0.27-3.34-0.4
			c-3.21-1.47-6.72-1.73-10.1-2.52c-0.71-0.16-1.41-0.33-2.12-0.49c-0.34-0.86-1.05-1.67-1.85-1.14c-0.73,0.49-0.02,1.39,0.55,1.8
			c0.6,0.43,0.79,1.69,1.97,1.12c0.91,0.55,1.81,1.09,2.72,1.64c-0.08,0.1-0.21,0.18-0.22,0.29c-0.01,0.09,0.09,0.27,0.18,0.29
			C208.3,482.78,209.67,484.01,211.46,483.55z M363.41,481.04c-1.36-0.36-2.73-0.72-4.09-1.08c0.4-0.41,0.06-0.53-0.27-0.59
			c-0.04-0.01-0.14,0.29-0.21,0.45c-0.83-0.13-1.67-0.27-2.51-0.4c-0.24-0.19-0.5-0.36-0.73-0.57c-0.06-0.06-0.02-0.23-0.03-0.35
			c0.05,0.09,0.08,0.2,0.15,0.26c0.17,0.14,0.37,0.24,0.53,0.39c0.06,0.06,0.01,0.22,0.02,0.33c1.32,1.75,2.95,3.01,5.19,3.35
			c0.69,0.88,1.49,1.36,2.62,0.81c0.83,0.19,1.66,0.37,2.49,0.56c0.26,0.8,0.61,0.96,1.11,0.17c1.14,0.09,2.28,0.17,3.42,0.26
			c-0.2,0.31-0.32,0.59,0.24,0.59c-0.01-0.2-0.03-0.39-0.04-0.59c0.91-0.08,1.82-0.16,2.73-0.24c0.71,0.83,1.29,0.67,1.79-0.22
			c1.08-0.21,2.16-0.42,3.24-0.63c1.82,0.12,3.49-0.15,4.67-1.75c0.91-0.55,1.81-1.09,2.72-1.64c1.82-0.17,2.46-1.35,2.8-3
			c-1.23-0.13-1.83,0.34-2.16,1.23c-0.71,0.16-1.41,0.33-2.12,0.49c-3.37,0.79-6.88,1.04-10.08,2.52c-1.12,0.13-2.24,0.27-3.36,0.4
			c-0.39-0.53-0.78-0.62-1.19-0.01c-1.73-0.12-3.46-0.24-5.19-0.36C364.82,480.16,364.12,480.59,363.41,481.04z M389.93,440.28
			c7.9-3.4,15.16-7.55,18.86-15.93c0.08,0.09,0.14,0.22,0.25,0.27c0.09,0.04,0.3,0.05,0.34-0.01c2.5-4.17,3.28-8.57,2.02-13.68
			c-2.52,1.91-0.89,4.47-1.76,6.37c-2.83,8.48-9.09,13.99-16.21,18.78c-0.17-0.05-0.34-0.1-0.51-0.16c0.01,0.19,0.01,0.37,0.02,0.56
			c-1.08,0.64-2.17,1.29-3.25,1.93c-2.16,0.08-3.48,1.13-3.64,3.68C387.34,441.49,388.63,440.88,389.93,440.28z M179.89,421.06
			c3.47,10.02,11.44,15.21,20.55,19.18c1.44,0.49,2.64,1.8,5.42,1.31c-2.23-1.55-3.21-3.34-5.47-3.46
			c-1.76-1.12-3.62-2.11-5.26-3.38c-6.12-4.73-12.23-9.5-14.39-17.5c0.15-2.1,0.42-4.23-1.28-6.12
			C178.07,414.71,178.22,417.6,179.89,421.06z M187.66,460.46c0.08-0.15,0.26-0.36,0.22-0.43c-0.17-0.28-0.41-0.46-0.66-0.05
			c-0.63-0.95-1.26-1.91-1.89-2.86c0.72-0.73,0.34-1.26-0.38-1.6c-0.16-0.08-0.69,0.23-0.78,0.47c-0.3,0.8-0.06,1.36,0.91,1.39
			c-0.4,1.74,0.45,3.06,1.32,4.47c2.39,3.86,5.89,6.23,10.05,7.75c8.8,3.23,17.63,3.35,26.78,0.46c-0.46-0.52-0.66-0.89-0.77-0.86
			c-4.67,1.13-9.36,0.49-13.99-0.05C200.73,468.25,193.2,466.67,187.66,460.46z M405.44,457.36c0.97-0.02,1.22-0.58,0.91-1.39
			c-0.09-0.23-0.62-0.54-0.78-0.46c-0.72,0.34-1.1,0.88-0.38,1.61c-0.63,0.95-1.26,1.91-1.89,2.86c-0.16-0.07-0.39-0.23-0.46-0.18
			c-0.24,0.19-0.45,0.45,0.02,0.66c-5.66,6.3-13.34,7.79-21.19,8.74c-4.66,0.56-9.34,0.83-14.04,0.45
			c10.58,3.88,20.96,3.08,30.73-2.14C402.05,465.52,405.47,462.42,405.44,457.36z M258.36,480.18c-4.62,3.01-7.51,6.75-11.8,8.45
			c-4.36,1.73-9.08,1.57-14.1,2.61C242.1,495.04,252.74,491.6,258.36,480.18z M358.04,491.06c-5.26-0.68-9.85-0.84-14.23-2.48
			c-4.28-1.6-7.05-5.48-11.1-7.36C339.8,491.76,349.45,495.57,358.04,491.06z M187.38,406.26c-0.04,0.08-0.13,0.17-0.11,0.22
			c0.11,0.32,0.28,0.33,0.42,0.02c0.02-0.05-0.04-0.18-0.1-0.23C187.55,406.24,187.45,406.27,187.38,406.26z"/>
		<path class="st1" d="M396.35,415.25c-8.23,7.37-18.49,10.86-28.53,14.69c-2.59,0.99-4.46,2.37-6.1,4.53
			c-9.96,13.12-22.69,22.47-38.31,27.8c-1.16,0.4-2.4,0.57-3.6,0.85c0,0-0.01,0-0.01,0c-0.26,0.41-0.52,0.83-0.78,1.23
			c-0.92,0.34-1.84,0.68-2.76,1.03c-4.1-1.62-7.48,0.23-7.52,4.12c-0.06,5.73,0.04,11.47-0.24,17.19c-0.13,2.75,0.83,3.34,3.35,3.21
			c3.97-0.2,7.96-0.09,11.94-0.04c4.86,0.06,7.62,2.57,8.05,7.45c0.21,2.35,0.13,4.73,0.09,7.09c-0.1,5.49-2.72,8.26-8.21,8.46
			c-4.11,0.15-8.23,0.15-12.33-0.01c-2.2-0.09-2.72,0.7-2.65,2.75c0.15,4.11,0.14,8.22,0.01,12.33c-0.16,5.37-2.54,7.59-7.94,7.65
			c-2.24,0.03-4.48,0.02-6.73,0c-5.5-0.03-7.91-2.33-8.06-7.9c-0.11-4.11-0.11-8.22,0.01-12.33c0.06-1.91-0.45-2.6-2.47-2.53
			c-4.23,0.15-8.47,0.13-12.7,0.02c-5.54-0.14-7.62-2.36-7.58-7.83c0.02-2.37-0.01-4.73,0.03-7.1c0.1-5.84,2.3-8,8.2-8.09
			c0.87-0.01,1.74-0.09,2.6-0.13c0.27,0.01,0.54,0.01,0.82,0.01c3.1,0.04,6.2,0,9.29,0.16c1.82,0.09,2.31-0.59,2.29-2.34
			c-0.09-6.57-0.07-13.14-0.01-19.71c0.01-1.33-0.33-2.04-1.72-2.28c-3.51-0.59-7-1.28-10.5-1.93c-1.4-0.48-2.8-0.96-4.2-1.44
			c-5.49-2.87-11.29-5.12-16.47-8.6c-6.03-4.05-11.88-8.43-16.21-14.21c-3.79-5.06-8.96-7.15-14.41-9.27
			c-8.97-3.49-18.14-6.59-25.94-12.52c-0.99-0.75-1.93-1.55-2.9-2.32c0.38-0.34,0.75-0.68,1.13-1.02
			c10.1,6.67,21.39,10.58,33.01,14.48c0.3-1.88-0.81-2.85-1.38-3.97c-12.59-24.36-13.23-48.97-1.64-73.86
			c0.57-1.23,1.05-2.53,2.22-3.37c2.77-0.05,4.27,2.28,6.3,3.53c4.26,2.64,9.01,4.24,13.35,6.66c-7.06,12.96-9.59,26.69-6.11,41.11
			c5.51,22.82,19.79,37.94,42.46,43.57c23.48,5.83,44-1,59.08-19.98c15.88-19.98,16.93-42,5.32-64.66c0.47-1.12,1.54-1.42,2.53-1.86
			c5.8-2.56,12.08-4.13,17.09-8.31c5.01,7.17,7.35,15.38,8.93,23.79c3.52,18.64,0.67,36.35-8.34,53.05
			c-0.29,0.54-0.94,1.07-0.51,1.58c0.65,0.77,1.42,0.3,2.3,0c8.55-2.92,16.88-6.26,24.38-11.41c0.37-0.26,0.95-0.22,1.43-0.32
			C395.83,414.66,395.73,415.18,396.35,415.25z"/>
		<path class="st1" d="M260.14,315.07c12.22-6.48,25.24-9.59,39.06-9.27c12.09,0.29,23.6,2.95,34.34,8.64
			c4.9,3.53,10.3,6.36,14.66,10.67c0.94,0.93,2.08,1.8,3.56,1.82c0.27,0.18,0.53,0.37,0.8,0.56l-0.12-0.01
			c0.34,0.97,1.16,1.47,1.87,2.13c3.51,3.2,6.87,6.56,8.83,11.01c-4.9,6.52-11.95,8.92-19.59,10.19c-0.54-0.48-1.14-0.91-1.62-1.44
			c-24.42-26.95-62.94-27.37-87.94-0.92c-0.87,0.92-1.76,1.73-2.95,2.17c-3.63,0.34-6.43-2.04-9.5-3.25
			c-3.62-1.44-7.54-3.07-9.69-6.86c1.14-2.95,3.4-5.09,5.35-7.47c0.98-1.2,2.58-2.05,2.3-3.98c6.95-3.39,11.85-9.66,18.61-13.3
			c0.12-0.13,0.26-0.24,0.41-0.33C259.12,315.62,259.72,315.77,260.14,315.07z"/>
		<path class="st2" d="M258.11,315.75c-6.77,3.65-11.66,9.92-18.61,13.3c-3.22,1.04-5.7,2.99-7.67,5.77
			c-1.44,2.03-1.49,3.79,0.02,5.69c2.15,3.79,6.07,5.42,9.69,6.86c3.06,1.22,5.87,3.59,9.5,3.25c6.57,2.45,13.5,3.46,20.36,4.34
			c14.72,1.9,29.55,1.93,44.34,0.86c9.42-0.68,18.72-2.29,27.8-5.01c7.63-1.27,14.68-3.67,19.59-10.19
			c2.12-2.92,0.97-5.37-1.22-7.56c-2.67-2.66-5.98-4.31-9.49-5.58c0,0,0.12,0.01,0.12,0.01c-0.27-0.18-0.53-0.37-0.8-0.56
			c-1.48-0.02-2.62-0.89-3.56-1.82c-4.35-4.31-9.76-7.14-14.66-10.67c9.23,1.54,18.16,4.03,26.5,8.38c3.32,1.73,6.29,3.88,8.69,6.85
			c3.78,4.68,3.98,10.38,0.32,15.35c-0.58,0.79-1.01,1.69-1.51,2.55c-5.02,4.18-11.3,5.75-17.1,8.31c-0.99,0.44-2.05,0.74-2.53,1.86
			c-0.85,0.14-1.71,0.2-2.53,0.41c-25.92,6.56-52.09,7.43-78.5,3.54c-6.66-0.98-13.12-2.78-19.72-3.98
			c-4.35-2.42-9.09-4.02-13.35-6.66c-2.03-1.26-3.54-3.58-6.3-3.53c-0.37-0.77-0.62-1.65-1.15-2.3c-5.93-7.38-2.06-14.71,3.36-18.69
			C238.15,320.34,247.66,316.75,258.11,315.75z"/>
		<path class="st1" d="M403.29,459.99c0.63-0.95,1.26-1.91,1.89-2.86c0,0,0.06,0.22,0.06,0.22l0.2,0.01
			c0.03,5.05-3.38,8.16-7.1,10.15c-9.77,5.23-20.14,6.02-30.73,2.14c4.7,0.37,9.39,0.11,14.04-0.45c7.85-0.95,15.53-2.44,21.19-8.73
			C403.24,460.55,403.48,460.47,403.29,459.99z"/>
		<path class="st1" d="M185.32,457.11c0.63,0.95,1.26,1.91,1.89,2.86c-0.2,0.48,0.04,0.55,0.44,0.48
			c5.54,6.22,13.07,7.79,20.79,8.69c4.63,0.54,9.32,1.18,13.99,0.05c0.11-0.03,0.31,0.34,0.77,0.86
			c-9.14,2.89-17.97,2.77-26.78-0.46c-4.15-1.52-7.65-3.9-10.05-7.75c-0.87-1.4-1.72-2.73-1.32-4.47c0,0,0.2-0.03,0.2-0.03
			L185.32,457.11z"/>
		<path class="st1" d="M406.66,442.39c-3.67,8.04-19.77,16.22-28.23,11.48c11.11-0.25,19.46-5.54,27.18-12.15
			c0.24,0.08,0.48,0.15,0.73,0.22C406.46,442.09,406.56,442.24,406.66,442.39z"/>
		<path class="st1" d="M184.89,441.72c7.69,6.51,15.88,11.92,26.62,12.05c-6.36,5.1-23.74-2.78-27.66-11.39
			c0.1-0.15,0.21-0.3,0.32-0.44C184.4,441.87,184.65,441.79,184.89,441.72z"/>
		<path class="st1" d="M258.36,480.18c-5.62,11.42-16.26,14.85-25.9,11.06c5.02-1.04,9.74-0.88,14.1-2.61
			C250.85,486.94,253.74,483.2,258.36,480.18z"/>
		<path class="st1" d="M358.04,491.06c-8.58,4.51-18.23,0.7-25.34-9.84c4.05,1.89,6.83,5.76,11.1,7.36
			C348.18,490.22,352.77,490.38,358.04,491.06z"/>
		<path class="st1" d="M200.44,440.24c-9.11-3.97-17.08-9.17-20.55-19.17c0.11-1.32-0.96-2.91,0.86-3.86
			c2.16,8,8.27,12.77,14.39,17.5c1.64,1.27,3.5,2.26,5.25,3.37C200.1,438.81,199.68,439.54,200.44,440.24z"/>
		<path class="st1" d="M408.78,424.34c-3.69,8.38-10.95,12.54-18.85,15.93c-0.08-0.62-0.16-1.24-0.25-1.86
			c1.08-0.64,2.17-1.29,3.25-1.93c0.33,0.08,0.63,0.09,0.49-0.41c7.11-4.78,13.38-10.3,16.2-18.77
			C412.43,420.02,408.77,421.96,408.78,424.34z"/>
		<path class="st2" d="M274.95,489.71c-0.28,0-0.55-0.01-0.82-0.01c-0.04-9.37,0-18.76-4.04-27.54c1.41,0.49,2.81,0.97,4.21,1.45
			C276.56,472.26,277.58,480.94,274.95,489.71z"/>
		<path class="st1" d="M371.11,484.63c-1.14-0.09-2.28-0.17-3.41-0.26c-0.28-0.61-0.69-0.44-1.12-0.17
			c-0.83-0.19-1.66-0.37-2.49-0.56c-0.87-0.27-1.75-0.54-2.63-0.82c-2.23-0.34-3.87-1.6-5.19-3.35l0.07-0.06
			c0.83,0.13,1.67,0.27,2.5,0.4c0.02,0.5,0.22,0.43,0.48,0.14c1.36,0.36,2.73,0.72,4.08,1.07c0.44,0.77,1.07,0.71,1.76,0.38
			c1.73,0.12,3.46,0.24,5.18,0.36c0.39,0.54,0.79,0.5,1.19,0.01c1.12-0.13,2.24-0.27,3.35-0.4c3.58,0.04,7.04-0.41,10.09-2.52
			c0.71-0.16,1.41-0.33,2.12-0.49c-0.29,0.57-1.07,0.95-0.65,1.77c-0.91,0.55-1.81,1.09-2.71,1.64c-1.69,0.22-3.32,0.62-4.68,1.76
			c-1.08,0.21-2.16,0.42-3.24,0.63c-0.67-0.52-1.27-0.45-1.8,0.22c-0.91,0.08-1.82,0.16-2.73,0.24c0,0-0.1-0.16-0.1-0.16
			L371.11,484.63z"/>
		<path class="st1" d="M215.61,481.38c1.11,0.13,2.23,0.27,3.33,0.4c0.4,0.48,0.81,0.53,1.21-0.01c1.73-0.12,3.46-0.24,5.18-0.36
			c0.67,0.33,1.3,0.41,1.75-0.37c1.36-0.36,2.73-0.72,4.09-1.08c0.24,0.28,0.44,0.37,0.47-0.13c0.46-0.03,1.02-0.23,1.37-0.04
			c0.65,0.35,0.19,0.85-0.18,1.06c-1.23,0.7-2.51,1.32-3.77,1.97c-0.87,0.27-1.74,0.54-2.62,0.81c-0.84,0.19-1.67,0.38-2.51,0.56
			c-0.42-0.27-0.83-0.44-1.11,0.17c-1.21,0.09-2.42,0.19-3.62,0.28c-1.45-0.45-2.89-0.99-4.45-0.46c-1.1-0.22-2.2-0.43-3.29-0.64
			c-1.36-1.12-2.99-1.54-4.69-1.76c-0.91-0.55-1.81-1.09-2.71-1.63c0.39-0.82-0.31-1.24-0.66-1.79c0.71,0.16,1.41,0.33,2.11,0.49
			C208.55,480.97,212.02,481.43,215.61,481.38z"/>
		<path class="st2" d="M316.26,465.38c0.92-0.35,1.84-0.69,2.76-1.03c-2.55,7.33-2.11,15.13-3.65,22.64
			C314.03,479.71,313.33,472.48,316.26,465.38z"/>
		<path class="st2" d="M408.78,424.34c-0.02-2.38,3.65-4.32,0.84-7.04c0.88-1.91-0.75-4.46,1.76-6.37c1.25,5.1,0.48,9.51-2.02,13.68
			c-0.03,0.05-0.24,0.05-0.34,0.01C408.93,424.57,408.86,424.44,408.78,424.34z"/>
		<path class="st2" d="M396.35,415.25c-0.62-0.07-0.52-0.59-0.62-0.98c1.66-3.08,3.84-5.67,6.87-7.5l0.1,0.11
			C402.04,410.77,399.48,413.22,396.35,415.25z"/>
		<path class="st2" d="M180.75,417.2c-1.81,0.95-0.75,2.54-0.86,3.86c-1.68-3.47-1.83-6.36-0.42-9.98
			C181.17,412.97,180.9,415.1,180.75,417.2z"/>
		<path class="st2" d="M195.29,414.23c-0.38,0.34-0.75,0.68-1.13,1.02c-2.64-1.65-4.93-3.58-5.64-6.81c0.09-0.11,0.19-0.2,0.31-0.27
			C191.51,409.63,193.62,411.7,195.29,414.23z"/>
		<path class="st2" d="M384.98,478.87c-3.05,2.11-6.51,2.56-10.09,2.52C378.1,479.91,381.61,479.66,384.98,478.87z"/>
		<path class="st2" d="M215.61,481.38c-3.59,0.04-7.06-0.42-10.11-2.53C208.89,479.65,212.4,479.91,215.61,481.38z"/>
		<path class="st2" d="M200.44,440.24c-0.77-0.7-0.34-1.44-0.05-2.16c2.26,0.13,3.24,1.91,5.47,3.47
			C203.08,442.04,201.88,440.73,200.44,440.24z"/>
		<path class="st2" d="M182.44,441.36c-1.62-0.59-1.41-1.91-1.65-3.49c1.62,0.48,2.68,0.89,2.68,2.44
			C183.13,440.66,182.79,441.01,182.44,441.36z"/>
		<path class="st2" d="M389.68,438.42c0.09,0.62,0.17,1.24,0.25,1.86c-1.3,0.61-2.59,1.22-3.89,1.82
			C386.21,439.55,387.52,438.5,389.68,438.42z"/>
		<path class="st2" d="M407.04,440.31c-0.01-1.55,1.06-1.95,2.45-2.37c0.23,1.61,0.06,2.78-1.43,3.43
			C407.72,441.01,407.38,440.66,407.04,440.31z"/>
		<path class="st2" d="M203.4,478.37c0.36,0.55,1.06,0.96,0.66,1.79c-1.18,0.57-1.37-0.7-1.97-1.12c-0.57-0.4-1.28-1.31-0.55-1.8
			C202.35,476.7,203.05,477.51,203.4,478.37z"/>
		<path class="st2" d="M386.46,480.15c-0.42-0.82,0.36-1.2,0.65-1.77c0.33-0.89,0.92-1.36,2.16-1.23
			C388.92,478.8,388.28,479.98,386.46,480.15z"/>
		<path class="st2" d="M206.77,481.79c1.71,0.22,3.34,0.63,4.69,1.76c-1.8,0.46-3.16-0.77-4.74-1.18c-0.08-0.02-0.19-0.2-0.18-0.29
			C206.56,481.98,206.7,481.89,206.77,481.79z"/>
		<path class="st2" d="M379.07,483.54c1.36-1.14,2.99-1.54,4.68-1.76C382.57,483.39,380.89,483.67,379.07,483.54z"/>
		<path class="st2" d="M214.76,484.19c1.55-0.52,3,0.02,4.45,0.46C217.63,485.31,216.15,485.24,214.76,484.19z"/>
		<path class="st2" d="M405.44,457.36l-0.2-0.01c0,0-0.06-0.22-0.06-0.22c-0.71-0.74-0.34-1.27,0.38-1.61
			c0.16-0.08,0.69,0.23,0.78,0.46C406.66,456.78,406.41,457.34,405.44,457.36z"/>
		<path class="st2" d="M185.32,457.11l-0.05,0.23c0,0-0.2,0.03-0.2,0.03c-0.97-0.03-1.21-0.59-0.91-1.4
			c0.09-0.23,0.62-0.54,0.78-0.47C185.66,455.85,186.05,456.38,185.32,457.11z"/>
		<path class="st2" d="M226.44,483.64c0.87-0.27,1.75-0.54,2.62-0.81C228.41,483.82,227.55,484.12,226.44,483.64z"/>
		<path class="st2" d="M361.46,482.83c0.88,0.27,1.76,0.55,2.63,0.82C362.95,484.19,362.15,483.71,361.46,482.83z"/>
		<path class="st2" d="M365.17,481.41c-0.69,0.34-1.32,0.4-1.76-0.38C364.12,480.59,364.82,480.16,365.17,481.41z"/>
		<path class="st2" d="M227.08,481.04c-0.45,0.79-1.08,0.7-1.75,0.37C225.69,480.21,226.37,480.55,227.08,481.04z"/>
		<path class="st2" d="M374.04,484.4c0.53-0.67,1.13-0.74,1.8-0.22C375.33,485.07,374.74,485.22,374.04,484.4z"/>
		<path class="st2" d="M220.15,481.77c-0.4,0.55-0.81,0.49-1.21,0.01C219.35,481.26,219.75,481.16,220.15,481.77z"/>
		<path class="st2" d="M222.82,484.37c0.29-0.61,0.7-0.44,1.11-0.17C223.68,485.01,223.32,485.17,222.82,484.37z"/>
		<path class="st2" d="M366.58,484.2c0.42-0.27,0.83-0.44,1.12,0.17C367.19,485.17,366.83,485.01,366.58,484.2z"/>
		<path class="st2" d="M371.54,481.79c-0.41,0.49-0.81,0.52-1.19-0.01C370.76,481.17,371.15,481.25,371.54,481.79z"/>
		<path class="st2" d="M356.27,479.48c0-0.11,0.04-0.27-0.02-0.33c-0.15-0.15-0.36-0.25-0.53-0.39c-0.07-0.06-0.1-0.17-0.15-0.26
			c0.01,0.12-0.03,0.29,0.03,0.35c0.22,0.21,0.48,0.38,0.73,0.57C356.34,479.42,356.27,479.48,356.27,479.48z"/>
		<path class="st2" d="M403.29,459.99c0.19,0.48-0.05,0.56-0.45,0.48c-0.46-0.21-0.26-0.47-0.01-0.66
			C402.89,459.76,403.13,459.92,403.29,459.99z"/>
		<path class="st2" d="M187.66,460.46c-0.4,0.07-0.65,0-0.44-0.48c0.25-0.41,0.5-0.23,0.66,0.05
			C187.92,460.1,187.74,460.31,187.66,460.46z"/>
		<path class="st2" d="M393.42,436.08c0.14,0.5-0.16,0.48-0.49,0.41c0-0.19-0.01-0.38-0.02-0.56
			C393.09,435.97,393.25,436.02,393.42,436.08z"/>
		<path class="st1" d="M182.44,441.36c0.35-0.35,0.69-0.7,1.04-1.05c0.32,0.28,0.64,0.56,0.96,0.83c-0.09,0.26-0.18,0.53-0.27,0.8
			c-0.11,0.14-0.22,0.29-0.32,0.44C183.37,442.04,182.91,441.7,182.44,441.36z"/>
		<path class="st1" d="M407.04,440.31c0.34,0.35,0.68,0.71,1.03,1.06c-0.47,0.34-0.94,0.68-1.4,1.02c-0.1-0.15-0.21-0.3-0.31-0.45
			c-0.09-0.27-0.18-0.53-0.27-0.8C406.4,440.87,406.72,440.59,407.04,440.31z"/>
		<path class="st2" d="M406.07,441.15c0.09,0.27,0.18,0.53,0.27,0.8c-0.24-0.07-0.49-0.15-0.73-0.22
			C405.28,441.14,405.43,440.95,406.07,441.15z"/>
		<path class="st2" d="M231.64,479.84c-0.03,0.5-0.23,0.41-0.47,0.13c-0.38-0.4-0.07-0.52,0.26-0.59
			C231.47,479.37,231.57,479.68,231.64,479.84z"/>
		<path class="st2" d="M359.32,479.96c-0.26,0.29-0.46,0.35-0.48-0.14c0.07-0.16,0.18-0.46,0.22-0.45
			C359.39,479.44,359.72,479.55,359.32,479.96z"/>
		<path class="st2" d="M371.11,484.63l0.1-0.16c0,0,0.1,0.16,0.1,0.16c0.01,0.2,0.03,0.39,0.04,0.59
			C370.79,485.23,370.91,484.95,371.11,484.63z"/>
		<path class="st2" d="M184.16,441.94c0.09-0.27,0.18-0.54,0.27-0.8c0.66-0.2,0.79,0.01,0.46,0.58
			C184.65,441.79,184.4,441.87,184.16,441.94z"/>
		<path class="st2" d="M260.14,315.07c-0.42,0.69-1.02,0.54-1.62,0.35C258.99,314.96,259.52,314.81,260.14,315.07z"/>
		<path class="st2" d="M319.8,463.12c0,0,0.01,0,0.01,0S319.8,463.12,319.8,463.12z"/>
		<path class="st2" d="M402.6,406.77c0.11-0.19,0.21-0.39,0.32-0.58c0.12,0.12,0.23,0.25,0.35,0.37c-0.19,0.11-0.38,0.21-0.57,0.32
			C402.7,406.88,402.6,406.77,402.6,406.77z"/>
		<path class="st2" d="M188.53,408.44c-0.2-0.23-0.41-0.46-0.6-0.71c-0.01-0.01,0.16-0.16,0.25-0.25c0.22,0.23,0.44,0.45,0.65,0.68
			C188.72,408.24,188.61,408.33,188.53,408.44z"/>
		<path class="st2" d="M187.38,406.26c0.07,0,0.17-0.02,0.21,0.01c0.06,0.05,0.12,0.17,0.1,0.23c-0.14,0.31-0.3,0.3-0.42-0.02
			C187.25,406.43,187.34,406.33,187.38,406.26z"/>
		<path class="st0" d="M247.16,357.71c6.6,1.2,13.06,3,19.72,3.98c26.41,3.89,52.57,3.02,78.5-3.54c0.83-0.21,1.69-0.28,2.53-0.41
			c11.61,22.66,10.56,44.68-5.32,64.66c-15.09,18.99-35.6,25.81-59.08,19.98c-22.68-5.63-36.95-20.75-42.46-43.57
			C237.57,384.4,240.1,370.67,247.16,357.71z"/>
		<path class="st0" d="M274.95,489.71c2.63-8.77,1.6-17.45-0.66-26.1c3.5,0.65,6.99,1.34,10.5,1.93c1.4,0.23,1.73,0.95,1.72,2.28
			c-0.06,6.57-0.08,13.14,0.01,19.71c0.02,1.75-0.47,2.43-2.29,2.34C281.15,489.71,278.05,489.75,274.95,489.71z"/>
		<path class="st0" d="M343.55,350.81c-9.08,2.73-18.37,4.33-27.8,5.01c-14.8,1.07-29.62,1.04-44.34-0.86
			c-6.86-0.88-13.79-1.9-20.36-4.34c1.19-0.44,2.08-1.25,2.95-2.17c24.99-26.44,63.52-26.03,87.94,0.92
			C342.41,349.9,343.01,350.33,343.55,350.81z"/>
		<path class="st0" d="M352.43,327.48c3.51,1.27,6.82,2.92,9.49,5.58c2.19,2.18,3.34,4.63,1.22,7.56
			c-1.97-4.45-5.32-7.81-8.83-11.01C353.58,328.95,352.76,328.45,352.43,327.48z"/>
		<path class="st0" d="M231.86,340.51c-1.51-1.89-1.46-3.66-0.02-5.69c1.97-2.78,4.45-4.73,7.67-5.77c0.29,1.93-1.32,2.79-2.3,3.98
			C235.26,335.41,232.99,337.55,231.86,340.51z"/>
		<path class="st0" d="M351.75,326.94c0.27,0.19,0.53,0.37,0.8,0.56C352.28,327.31,352.02,327.12,351.75,326.94z"/>
	</g>
</g>
</svg>
