<?xml version="1.0" encoding="utf-8"?>
<!-- Generator: Adobe Illustrator 24.2.0, SVG Export Plug-In . SVG Version: 6.00 Build 0)  -->
<svg version="1.1" id="Camada_1" xmlns="http://www.w3.org/2000/svg" xmlns:xlink="http://www.w3.org/1999/xlink" x="0px" y="0px"
	 viewBox="0 0 595.28 841.89" style="enable-background:new 0 0 595.28 841.89;" xml:space="preserve">
<style type="text/css">
	.st0{fill:#FEFEFE;}
	.st1{fill:#010101;}
	.st2{fill:#EAB219;}
</style>
<g>
	<g>
		<path class="st0" d="M297.24,304.91c38.71,0,77.43,0,116.14-0.02c0.9,0,1.1,0.2,1.1,1.1c-0.02,76.87-0.02,153.73,0,230.6
			c0,0.9-0.2,1.1-1.1,1.1c-77.43-0.02-154.85-0.02-232.28,0c-0.9,0-1.1-0.2-1.1-1.1c0.02-76.87,0.02-153.73,0-230.6
			c0-0.9,0.2-1.1,1.1-1.1C219.81,304.92,258.53,304.91,297.24,304.91z M271.27,311.62c-1.11,0.46-2.21,0.92-3.32,1.38
			c-1.1-0.6-2.28-0.93-3.54-0.9c-1.94,0.03-3.87,0.08-5.81,0.2c-1.8,0.11-3.03,1.21-4.19,2.14c-0.81,0.66-1.65,1.69-2.23,2.69
			c-0.53,0.91-1.31,1.86-0.72,3.17c0.37,0.82-0.17,1.53-0.97,1.91c-0.52,0.25-1.05,0.49-1.64,0.61c-0.55,0.12-1.15,0.43-1.57,0.04
			c-0.44-0.41,0.01-0.92,0.17-1.4c0.3-0.88-0.26-1.47-0.97-1.81c-0.43-0.2-1.07-0.87-1.44-0.13c-0.89,1.79-2.67,2.8-3.68,4.49
			c-0.88,1.49-1.61,1.52-2.78,0.29c-2.06-2.16-4.57-3.57-7.41-4.71c0.03,0.85,0.41,1.49,0.8,1.92c1.9,2.07,2.97,4.56,3.88,7.16
			c0.1,0.27,0.18,0.56-0.03,0.79c-0.25,0.26-0.67,0.25-0.89,0.1c-0.98-0.7-2.19-0.98-3.13-1.68c-0.99-0.74-1.77-0.27-2.63,0.04
			c-0.76,0.28-0.3,0.95-0.42,1.44c-0.06,0.27,0.03,0.62-0.12,0.81c-1.05,1.37-0.97,3.15-0.74,4.5c0.28,1.6-1.1,2.99-0.19,4.48
			c-0.76,0.96-0.43,2.24-0.9,3.25c-0.71,1.52,0.05,3.35-1.13,4.73c-0.03,0.04,0.01,0.15,0.03,0.23c0.47,1.58,0.05,3.38,1.19,4.79
			c-0.03,0.08-0.04,0.15-0.08,0.23c-6.49,13.7-9.01,28.08-7.4,43.16c1.25,11.79,5.12,22.72,11.1,32.93
			c0.24,0.41,0.46,0.83,0.82,1.47c-6.29-2.36-12.39-4.33-18.34-6.72c-7.99-3.2-15.46-7.23-21.5-13.53
			c-0.17-0.18-0.35-0.34-0.64-0.17c1.14,2.26,2.71,4.18,4.55,5.9c4.61,4.32,10.08,7.25,15.76,9.84c6.6,3.01,13.49,5.31,20.16,8.14
			c2.26,0.96,4.15,2.35,5.7,4.24c8.4,10.25,18.53,18.18,30.91,23.12c2.96,1.18,5.01,3.33,6.17,6.32c0.84,2.17,1.28,4.43,1.64,6.72
			c0.44,2.8,0.62,5.63,1.33,8.7c0.91-3.31,0.99-6.34,0.62-9.42c-0.36-3.04-1.19-5.98-1.98-9.06c0.32,0.04,0.51,0.06,0.69,0.1
			c3.24,0.66,6.49,1.31,9.73,1.98c1.76,0.37,2.33,1.15,2.3,3.07c-0.1,6.11-0.16,12.21,0.02,18.32c0.07,2.33-0.63,3.01-2.94,3
			c-4.4-0.02-8.8-0.05-13.19-0.01c-4.13,0.04-6.47,2.02-6.95,6.06c-0.43,3.65-0.32,7.35-0.09,11.01c0.21,3.26,1.79,5,4.62,5.62
			c0.89,0.2,1.82,0.27,2.73,0.3c4.15,0.15,8.31,0.1,12.46,0.02c2.28-0.04,2.89,0.55,2.83,2.8c-0.12,4.39-0.18,8.77,0.06,13.16
			c0.22,3.94,2.2,6.14,6.07,6.6c3.18,0.38,6.4,0.33,9.57,0.08c4.93-0.39,6.62-2.12,7.01-7.05c0.33-4.26,0.12-8.54,0.1-12.81
			c-0.01-2.19,0.56-2.78,2.77-2.74c4.24,0.09,8.47,0.14,12.7-0.06c4.38-0.21,6.98-2.38,7.49-6.59c0.42-3.44,0.47-6.94-0.15-10.38
			c-0.59-3.32-2.62-5.27-5.95-5.84c-0.78-0.13-1.59-0.18-2.38-0.18c-4.16-0.02-8.32,0-12.47-0.01c-1.65,0-2.22-0.57-2.25-2.24
			c-0.01-0.8,0.02-1.6,0.03-2.4c0.07-5.79,0.14-11.57,0.19-17.36c0.01-1.08,0.38-1.95,1.47-2.18c1.89-0.4,3.81-0.66,5.81-0.99
			c-0.49,2.91-1.06,5.68-1.39,8.47c-0.34,2.82-0.34,5.65,0.81,8.63c0.13-0.95,0.22-1.62,0.31-2.29c0.54-4.19,0.99-8.39,2.29-12.45
			c0.71-2.24,2.09-3.61,4.34-4.35c16.21-5.36,29.45-14.87,39.66-28.55c1.31-1.75,2.94-3.01,4.97-3.79c3.05-1.17,6.1-2.35,9.14-3.54
			c7.69-3.03,15-6.72,21.22-12.26c1.59-1.42,2.97-3.01,3.9-4.95c0.11-0.23,0.34-0.46-0.04-0.8c-9.21,9.68-21.34,13.89-33.63,18.03
			c-0.01-0.99,0.27-1.73,0.67-2.42c1.53-2.62,2.69-5.42,3.81-8.23c6.11-15.36,7.64-31.12,3.88-47.28
			c-1.94-8.34-4.75-16.37-9.58-23.55c-2.24-3.34-4.07-6.95-6.71-10.03c0.06-1.39-0.44-2.71-0.48-4.11c-0.05-1.55-1.34-2.66-2-4.01
			c-0.91-1.86-2.52-3.37-2.96-5.49c-0.34-1.66-1.81-2.6-2.53-4.02c-0.25-0.5-0.81-1.14-1.56-1.08c-1.77,0.14-3.6,0.26-4.7,1.94
			c-0.42,0.64-0.99,0.6-1.28,0.32c-1.08-1.06-1.24-0.19-1.5,0.6c-0.06,0.18-0.2,0.33-0.3,0.5c-0.71-0.5-1.42-1-2.13-1.5
			c0.16-0.96-0.37-2,0.39-2.89c0.17-0.2,0-0.47-0.13-0.67c-1.14-1.71-2.09-3.59-3.49-5.05c-1.26-1.32-2.8-2.44-4.33-3.54
			c-1.82-1.31-3.62-1.93-5.72-1.08c-2,0.81-4.22,1.5-4.02,4.38c0.01,0.11-0.18,0.24-0.28,0.36c-3.19-1.03-6.47-1.75-9.72-2.54
			c-1.94-1.56-4.14-2.35-6.64-2.58c-3.33-0.31-6.56-0.04-9.7,1.12c-4.82-0.03-9.6,0.5-14.35,1.31c-1.68-1.52-4.2-2.08-5.8-1.12
			c-1.39,0.83-2.87,1.36-4.42,1.72C272.32,308.87,271.4,309.89,271.27,311.62z M372.08,470.6c1.82,1,3.47,1.58,5.2,1.86
			c8.33,1.36,15.98-0.52,23.07-4.93c2.64-1.64,4.88-3.73,6.22-6.62c0.34-0.73,0.71-1.46,0.66-2.53c-1.44,1.82-2.86,3.37-4.49,4.72
			c-5.32,4.4-11.67,6-18.34,6.71C380.41,470.25,376.39,470.34,372.08,470.6z M187.06,457.89c0.18,1.48,0.76,2.78,1.55,3.98
			c2.43,3.69,5.93,6.1,9.87,7.87c6.32,2.84,12.88,4.15,19.79,2.48c1.31-0.32,2.59-0.76,3.85-1.67c-4.22-0.21-8.26-0.24-12.26-0.72
			c-3.93-0.47-7.78-1.28-11.48-2.73C193.63,465.25,189.87,462.18,187.06,457.89z M412.51,414.74c-1.42,6.1-4.29,11.36-8.9,15.65
			c-3.32,3.08-7.07,5.57-10.88,7.99c-1.39,0.88-2.8,1.75-4.49,2.81c0.52,0,0.66,0.01,0.81,0c0.67-0.07,1.37-0.07,2.02-0.24
			c10.45-2.78,17.37-9.46,21.24-19.42C413.14,419.35,413.27,417.05,412.51,414.74z M206.11,441.05c-0.6-0.35-0.93-0.54-1.26-0.74
			c-3.32-1.99-6.62-4-9.73-6.31c-6.35-4.7-11.27-10.44-13.3-18.28c-0.02-0.07-0.16-0.1-0.26-0.17
			C180.39,426.89,195.18,441.63,206.11,441.05z M359.2,480.16c1.23,1.43,2.72,2.39,4.39,3.08c3.97,1.64,8.13,1.93,12.35,1.58
			c3.52-0.29,6.94-1.06,10.06-2.82c1.21-0.68,2.35-1.48,3.16-3.04C379.17,482.86,369.26,483.48,359.2,480.16z M410.69,439.37
			c-7.7,7.7-16.18,13.5-27,15.71C392.96,457.47,407.45,449.07,410.69,439.37z M205.18,478.97c0.74,1.18,1.47,1.84,2.29,2.42
			c2.19,1.54,4.67,2.4,7.26,2.92c5.29,1.08,10.54,1.18,15.67-0.8c1.57-0.61,2.97-1.49,4.31-3.06
			C224.59,483.74,214.97,482.6,205.18,478.97z M184.03,440.03c3.45,9.87,18.44,17.39,26.62,15.02
			C200.06,452.98,191.69,447.15,184.03,440.03z M358.32,491.73c-3.98-0.85-7.99-0.83-11.74-2.21c-3.72-1.38-6.62-4.12-10.17-6.18
			C339.88,491.48,351.21,495.81,358.32,491.73z M236.31,491.75c6.78,4.08,18.26-0.14,21.62-8.36c-3.43,2.04-6.35,4.71-10.03,6.12
			C244.19,490.94,240.16,490.77,236.31,491.75z"/>
		<path class="st1" d="M361.67,335.91c2.64,3.07,4.47,6.69,6.71,10.03c4.83,7.18,7.64,15.21,9.58,23.55
			c3.76,16.16,2.23,31.92-3.88,47.28c-1.12,2.81-2.28,5.6-3.81,8.23c-0.4,0.69-0.68,1.43-0.67,2.42
			c12.29-4.13,24.42-8.34,33.63-18.03c0.38,0.34,0.15,0.57,0.04,0.8c-0.93,1.94-2.31,3.54-3.9,4.95
			c-6.23,5.55-13.54,9.24-21.22,12.26c-3.04,1.2-6.09,2.37-9.14,3.54c-2.03,0.78-3.66,2.04-4.97,3.79
			c-10.21,13.68-23.45,23.19-39.66,28.55c-2.25,0.74-3.63,2.12-4.34,4.35c-1.29,4.06-1.74,8.26-2.29,12.45
			c-0.09,0.67-0.18,1.34-0.31,2.29c-1.15-2.98-1.15-5.81-0.81-8.63c0.33-2.8,0.91-5.57,1.39-8.47c-2,0.33-3.92,0.59-5.81,0.99
			c-1.08,0.23-1.46,1.09-1.47,2.18c-0.05,5.79-0.12,11.57-0.19,17.36c-0.01,0.8-0.05,1.6-0.03,2.4c0.03,1.67,0.6,2.23,2.25,2.24
			c4.16,0.01,8.32-0.01,12.47,0.01c0.8,0,1.6,0.05,2.38,0.18c3.33,0.57,5.36,2.52,5.95,5.84c0.61,3.44,0.56,6.94,0.15,10.38
			c-0.51,4.21-3.11,6.38-7.49,6.59c-4.23,0.2-8.47,0.15-12.7,0.06c-2.21-0.05-2.78,0.54-2.77,2.74c0.02,4.27,0.24,8.55-0.1,12.81
			c-0.39,4.93-2.08,6.66-7.01,7.05c-3.18,0.25-6.39,0.3-9.57-0.08c-3.87-0.46-5.85-2.66-6.07-6.6c-0.24-4.38-0.19-8.77-0.06-13.16
			c0.06-2.26-0.55-2.85-2.83-2.8c-4.15,0.08-8.31,0.13-12.46-0.02c-0.91-0.03-1.84-0.11-2.73-0.3c-2.83-0.63-4.41-2.36-4.62-5.62
			c-0.24-3.66-0.34-7.35,0.09-11.01c0.48-4.05,2.81-6.03,6.95-6.06c4.4-0.04,8.79-0.01,13.19,0.01c2.31,0.01,3.01-0.66,2.94-3
			c-0.19-6.11-0.12-12.21-0.02-18.32c0.03-1.91-0.54-2.7-2.3-3.07c-3.24-0.68-6.49-1.33-9.73-1.98c-0.18-0.04-0.37-0.05-0.69-0.1
			c0.79,3.08,1.62,6.02,1.98,9.06c0.37,3.08,0.29,6.12-0.62,9.42c-0.71-3.07-0.89-5.91-1.33-8.7c-0.36-2.29-0.8-4.55-1.64-6.72
			c-1.16-2.99-3.2-5.14-6.17-6.32c-12.38-4.94-22.52-12.87-30.91-23.12c-1.55-1.89-3.44-3.29-5.7-4.24
			c-6.67-2.83-13.56-5.13-20.16-8.14c-5.68-2.59-11.16-5.52-15.76-9.84c-1.83-1.72-3.41-3.64-4.55-5.9c0.3-0.17,0.47-0.01,0.64,0.17
			c6.04,6.3,13.51,10.33,21.5,13.53c5.95,2.38,12.05,4.35,18.34,6.72c-0.36-0.64-0.58-1.06-0.82-1.47
			c-5.98-10.21-9.84-21.14-11.1-32.93c-1.6-15.08,0.91-29.46,7.4-43.16c0.03-0.07,0.05-0.15,0.08-0.23c0.36,0.77,0.62,1.6,1.09,2.29
			c0.7,1.02,1.92,1.48,2.87,2.24c1.32,1.07,2.88,1.49,4.59,1.55c1.47,0.05,2.93-0.73,4.41-0.04c0.12,0.06,0.35,0.03,0.46-0.04
			c0.97-0.64,1.35,0.01,1.68,0.76c0.52,1.17,1.37,2.13,2.18,3.07c0.76,0.87,1.69,1.59,2.03,2.76c-0.08,0.14-0.17,0.26-0.23,0.41
			c-4.9,11.78-5.68,23.91-2.69,36.22c3.24,13.31,10.78,23.86,21.66,32.04c8.98,6.74,19.09,10.7,30.33,11.47
			c10.8,0.74,21.12-1.44,30.63-6.51c19.8-10.57,30.33-27.23,31.31-49.65c0.42-9.55-1.92-18.65-6.02-27.29
			c-0.02-0.82,0.27-2.11-0.13-2.39c-1.59-1.1-1.42-2.94-2.18-4.36c-0.29-0.54-0.37-1.31,0.21-1.89c0.77-0.76,0.73-1.18-0.24-1.59
			c-0.83-0.35-1.11-0.93-1.13-1.78c-0.03-1.3,0.6-2.44,0.82-3.69c0.08-0.45,0.56-0.71,1.1-0.17c0.72,0.73,0.68,1.62,0.82,2.52
			c0.27,1.73,1.76,3.13,1.4,5.05c-0.02,0.11,0.14,0.28,0.25,0.38c0.76,0.67,1.06,1.53,1.08,2.51c0.01,0.27,0.11,0.5,0.32,0.61
			c1,0.51,1.36,1.6,2.05,2.38c1.5,1.68,3.13,3.18,4.9,4.54c0.42,0.33,1.47,0.54,1.71,0.3c0.86-0.89,2.1-1.35,2.76-2.41
			c0.61-0.98,1.32-1.84,2.11-2.67c0.78-0.81,1.3-1.81,1.38-3.01c0.14-2.17,0.04-4.3-1.07-6.22c-0.47-0.81-0.37-1.94-1.22-2.49
			c-1.23-0.8-1.84-2.11-2.71-3.17c-1.26-1.53-2.41-3.06-4.2-4.02c-0.98-0.52-0.85-1.31,0.05-1.89
			C360.17,337.36,361.48,337.26,361.67,335.91z"/>
		<path class="st2" d="M246.24,364.72c-0.34-1.17-1.27-1.89-2.03-2.76c-0.82-0.94-1.67-1.9-2.18-3.07c-0.33-0.75-0.71-1.4-1.68-0.76
			c-0.12,0.08-0.34,0.1-0.46,0.04c-1.48-0.69-2.94,0.1-4.41,0.04c-1.71-0.06-3.27-0.48-4.59-1.55c-0.95-0.77-2.16-1.22-2.87-2.24
			c-0.47-0.69-0.73-1.52-1.09-2.29c-1.14-1.41-0.72-3.21-1.19-4.79c-0.02-0.07-0.06-0.19-0.03-0.23c1.17-1.38,0.41-3.22,1.13-4.73
			c0.47-1.01,0.14-2.29,0.9-3.25c-0.92-1.49,0.46-2.88,0.19-4.48c-0.23-1.34-0.31-3.13,0.74-4.5c0.14-0.19,0.05-0.54,0.12-0.81
			c0.12-0.49-0.34-1.16,0.42-1.44c0.86-0.32,1.64-0.78,2.63-0.04c0.93,0.7,2.15,0.98,3.13,1.68c0.22,0.16,0.65,0.17,0.89-0.1
			c0.21-0.22,0.12-0.51,0.03-0.79c-0.91-2.59-1.98-5.08-3.88-7.16c-0.39-0.42-0.77-1.06-0.8-1.92c2.85,1.14,5.35,2.56,7.41,4.71
			c1.17,1.23,1.9,1.2,2.78-0.29c1.01-1.69,2.79-2.7,3.68-4.49c0.37-0.74,1.01-0.07,1.44,0.13c0.71,0.34,1.27,0.94,0.97,1.81
			c-0.17,0.48-0.62,1-0.17,1.4c0.42,0.39,1.02,0.08,1.57-0.04c0.59-0.13,1.12-0.36,1.64-0.61c0.8-0.38,1.34-1.09,0.97-1.91
			c-0.59-1.31,0.18-2.26,0.72-3.17c0.58-1,1.42-2.04,2.23-2.69c1.15-0.93,2.39-2.03,4.19-2.14c1.94-0.12,3.87-0.16,5.81-0.2
			c1.26-0.02,2.43,0.3,3.54,0.9c-5.95,2.82-11.71,5.95-17.05,9.82c-0.14-0.07-0.31-0.24-0.32,0.1l0.02-0.01
			c-1.03-0.13-1.78,0.44-2.58,0.96c-1.57,1.01-2.9,2.29-4.3,3.5c-0.85,0.73-0.99,1.24-0.21,2c0.98,1.76,1.81,3.59,2.56,5.48
			c0.71,1.81,1.25,3.66,1.29,5.53c0.04,1.76,0.92,2.55,2.2,3.33c0.84,0.52,1.49,1.36,1.68,2.29c0.12,0.61,0.63,0.83,0.77,1.39
			c0.23,0.94,0.98,0.09,1.48,0.23c0.34,0.09,0.71,0.12,1.06,0.11c0.49-0.02,1.11,1.1,1.46-0.13c0.17-0.6,0.9-0.86,0.75-1.74
			c-0.15-0.88-0.67-1.64-0.69-2.5c-0.05-1.48-0.61-2.85-0.75-4.33c-0.16-1.78-0.6-3.51-0.05-5.29c0.08-0.25,0.09-0.58-0.02-0.81
			c-0.28-0.63,0.1-0.91,0.55-1.11c0.33-0.15,0.64-0.31,0.9-0.56c0.97-0.92,2.18-0.94,3.24-0.1c0.27,0.21,0.72,0.51,0.95,0.42
			c1.22-0.48,2.24,0.81,3.45,0.33c0.19-0.08,0.57,0.23,0.83,0.41c0.22,0.15,0.36,0.36,0.69,0.41c1.63,0.22,3.11,0.86,4.25,2.02
			c0.69,0.71,1.45,1.22,2.3,1.65c0.44,1.04,1.51,1.46,2.21,2.25c1.15,1.3,2.21,2.66,3.09,4.13c0.72,1.2,1.23,2.53,1.74,3.84
			c0.45,1.16,1.15,2.39,0.77,3.63c-0.33,1.07-0.34,2.1-0.31,3.16c0.03,0.75-0.17,1.45-0.54,2.05c-0.85,1.37-1.27,3-2.64,4.07
			c-0.46,0.35-0.59,1.2,0.11,1.33c0.8,0.14,1.38,0.61,1.95,0.98c1.68,1.09,3.74,0.88,5.47,1.79c0.6,0.32,1.07-0.23,1.11-0.88
			c0.04-0.54,0.2-0.9,0.7-1.13c0.43-0.19,0.7-0.57,0.67-1.04c-0.03-0.63,0.35-0.98,0.82-1.2c1.25-0.58,1.61-2.33,3.22-2.45
			c0.08-0.01,0.13-0.27,0.21-0.41c0.57-1.13,1.73-1.78,2.72-2.14c1.78-0.65,3.1-2.27,5.14-2.31c0.14,0,0.3-0.34,0.42-0.54
			c0.14-0.22,0.35-0.46,0.56-0.37c0.94,0.39,1.79-0.17,2.69-0.17c2.16,0.01,4.33-0.01,6.49-0.02c0.42,0,0.8,0.08,1.09,0.39
			c0.26,0.29,0.6,0.41,0.97,0.38c0.65-0.05,1.17,0.14,1.59,0.65c0.18,0.23,0.41,0.44,0.71,0.31c0.48-0.21,0.7-0.03,0.95,0.38
			c0.22,0.38,0.65,0.52,1.09,0.66c1.02,0.31,1.92,0.79,2.12,2.01c0.05,0.28,0.34,0.52,0.52,0.77c1.01,1.43,2.55,2.55,2.65,4.51
			c0.01,0.24,0.04,0.52,0.32,0.59c0.34,0.09,0.46-0.22,0.64-0.43c0.32-0.38,0.58-0.81,0.61-1.28c0.08-1.25,0.2-2.42,0.73-3.63
			c0.62-1.41,0.21-3.17,1.26-4.51c0.06-0.08,0.04-0.23,0.05-0.35c0.06-1.14-0.44-2.42,0.89-3.23c0.12-0.07,0.05-0.45,0.06-0.68
			c0-0.29,0.02-0.65,0.27-0.76c1.24-0.54,1.74-1.87,2.91-2.52c1.8-1.01,3.49-2.2,5.22-3.32c2.86-1.53,5.69-0.41,8.41,0.34
			c1.65,0.46,2.92,1.87,4.13,3.15c0.26,0.27,0.34,0.85,0.85,0.7c0.45-0.14,0.49-0.67,0.63-1.06c0.54-1.5,0.41-3.13,0.8-4.65
			c0.18-0.68,0.06-0.95-0.58-1.08c-2.77-0.57-4.04-2.49-4.45-5.08c-0.39-2.48-0.3-4.97,0.07-7.47c0.25-1.73,0.92-3.38,0.86-5.16
			c0.1-0.17,0.24-0.32,0.3-0.5c0.26-0.79,0.41-1.66,1.5-0.6c0.29,0.28,0.86,0.32,1.28-0.32c1.09-1.68,2.93-1.8,4.7-1.94
			c0.75-0.06,1.31,0.59,1.56,1.08c0.73,1.42,2.19,2.36,2.53,4.02c0.44,2.12,2.04,3.63,2.96,5.49c0.66,1.35,1.95,2.45,2,4.01
			c0.05,1.4,0.54,2.72,0.48,4.11c-0.19,1.35-1.5,1.46-2.36,2.02c-0.89,0.59-1.02,1.37-0.05,1.89c1.79,0.96,2.95,2.49,4.2,4.02
			c0.87,1.06,1.48,2.38,2.71,3.17c0.85,0.55,0.75,1.68,1.22,2.49c1.11,1.92,1.21,4.05,1.07,6.22c-0.08,1.2-0.6,2.19-1.38,3.01
			c-0.8,0.83-1.51,1.7-2.11,2.67c-0.66,1.06-1.9,1.52-2.76,2.41c-0.24,0.24-1.28,0.03-1.71-0.3c-1.76-1.36-3.4-2.86-4.9-4.54
			c-0.69-0.78-1.04-1.87-2.05-2.38c-0.21-0.11-0.31-0.34-0.32-0.61c-0.02-0.98-0.32-1.84-1.08-2.51c-0.11-0.1-0.27-0.27-0.25-0.38
			c0.36-1.92-1.14-3.32-1.4-5.05c-0.14-0.9-0.1-1.79-0.82-2.52c-0.53-0.54-1.02-0.28-1.1,0.17c-0.22,1.24-0.85,2.39-0.82,3.69
			c0.02,0.84,0.3,1.43,1.13,1.78c0.97,0.41,1.01,0.83,0.24,1.59c-0.58,0.58-0.5,1.35-0.21,1.89c0.76,1.42,0.59,3.26,2.18,4.36
			c0.4,0.28,0.11,1.56,0.13,2.39c-0.19,0.3-0.45,0.62-0.26,0.99c0.35,0.66,0.06,1.27,0.01,1.92c-0.08,0.91-0.42,1.67-0.82,2.39
			c-0.65,1.17-1.41,2.3-2.22,3.36c-0.94,1.23-2.41,1.77-3.71,2.5c-1.61,0.9-3.36,1.45-5.16,1.92c-1.65,0.43-3.35,0-4.95,0.59
			c-0.43,0.16-0.9-0.2-1.03-0.45c-0.27-0.51-0.69-0.58-1.13-0.71c-1.36-0.37-2.46-1.27-3.83-1.73c0.14-0.11,0.2-0.18,0.27-0.21
			c1.94-0.73,2.38-2.22,2.12-4.1c-0.06-0.4-0.1-0.71-0.59-0.69c-1.09,0.03-2.05-0.49-3.07-0.74c-0.89-0.21-1.46-0.98-2.45-1
			c-1.22-0.03-2.23,0.46-3.31,0.84c-0.92,0.33-1.29,0.81-1.26,1.84c0.06,1.88,0.29,3.79-0.62,5.6c-0.22,0.43-0.27,1.35,0.35,1.48
			c1.25,0.28,1.52,0.32,0.46,1.47c-0.64,0.7-1.18,1.26-2.05,1.63c-0.6,0.26-1.36,0.06-1.83,0.72c-1.14,1.58-2.94,1.84-4.66,2.34
			c-1.56,0.45-3.17,0.56-4.74,0.92c-1.4,0.31-2.91,0.81-4.26,0.58c-1.65-0.29-3.1,0.32-4.65,0.35c-1.1,0.02-2.17,0.05-3.28-0.02
			c-1.47-0.09-2.81-0.58-4.19-0.91c-1.4-0.34-2.68-1.17-4.2-1.05c-0.03,0-0.06-0.04-0.1-0.07c-1.25-0.95-2.84-1.01-4.24-1.58
			c-0.73-0.3-1.73-0.32-1.96-1.22c-0.13-0.53-0.31-0.79-0.75-1.04c-0.48-0.26-0.9-0.63-1.33-0.98c-0.16-0.13-0.4-0.26-0.21-0.57
			c0.63-1.01,0.62-1.06-0.57-1.04c-0.96,0.01-1.16-0.18-0.79-1.18c0.38-1.01,1.47-1.44,1.76-2.53c0.08-0.3,1.27-1.14,1.81-0.39
			c0.7,0.98,1.54,0.97,2.5,0.97c0.54,0,0.59-0.23,0.64-0.73c0.08-0.81,0.18-1.73,0.62-2.38c0.77-1.16,0.87-1.09-0.41-1.59
			c-0.26-0.1-0.54-0.16-0.99-0.28c0.99-0.39,1.47-1.05,1.4-1.8c-0.06-0.65-0.87-0.63-1.42-0.81c-0.52-0.17-0.97-0.49-1.52-0.64
			c-1.47-0.4-2.98-0.63-4.38-1.29c-1.87-0.88-2.58-0.52-3.25,1.47c-0.26,0.78-0.76,1.54-1.62,1.51c-1.31-0.05-1.76,0.77-2.11,1.72
			c-0.36,0.98,0.1,1.64,1,2.13c0.45,0.24,0.44,0.97-0.05,0.92c-1.46-0.15-2.58,0.89-4.03,0.82c-3.12-0.15-6.22-0.1-9.34-0.63
			c-1.39-0.24-2.69-0.7-4.01-1.07c-1.61-0.45-2.99-1.54-4.17-2.79C247.97,365.46,247.2,364.91,246.24,364.72z M237.12,354.86
			c-0.14,0.68,0.1,0.87,0.8,0.91c0.8,0.04,1.84-0.01,2.25,0.81c0.36,0.73,0.6,0.62,1.14,0.33c0.7-0.38,1.15-1.01,1.49-1.64
			c0.8-1.51,2.03-2.61,3.41-3.47c0.51-0.32,0.85-0.94,1.52-1c0.55-0.05,1.66,0.77,1.26-0.79c0.15-0.03,0.29-0.09,0.44-0.1
			c0.47-0.04,0.93-0.16,0.97-0.68c0.04-0.47-0.5-0.56-0.8-0.79c-0.3-0.22-0.67-0.19-1.03-0.22c-1.72-0.12-3.4,0.15-5.11,0.3
			c-2.15,0.19-4,0.56-4.78,2.95C238.3,352.65,237.03,353.45,237.12,354.86z M241.8,348.28c1.88-0.26,3.76-0.59,5.68-0.53
			c0.41,0.01,0.5-0.27,0.48-0.65c-0.05-0.85-1.31-2.1-2.34-1.91c-1.85,0.34-2.54-0.95-3.42-2.04c-0.15-0.18-0.22-0.43-0.38-0.61
			c-0.18-0.2-0.37-0.5-0.68-0.4c-0.33,0.11-0.32,0.48-0.25,0.72c0.39,1.43-0.33,2.78-0.32,4.2
			C240.59,348.26,240.9,348.33,241.8,348.28z"/>
		<path class="st1" d="M272.4,336.36c-0.86-0.43-1.61-0.94-2.3-1.65c-1.14-1.16-2.62-1.81-4.25-2.02c-0.33-0.04-0.47-0.26-0.69-0.41
			c-0.26-0.17-0.63-0.48-0.83-0.41c-1.21,0.47-2.23-0.81-3.45-0.33c-0.23,0.09-0.68-0.2-0.95-0.42c-1.07-0.84-2.27-0.82-3.24,0.1
			c-0.26,0.25-0.57,0.41-0.9,0.56c-0.45,0.2-0.82,0.49-0.55,1.11c0.1,0.23,0.09,0.56,0.02,0.81c-0.55,1.78-0.11,3.52,0.05,5.29
			c0.13,1.48,0.7,2.85,0.75,4.33c0.03,0.87,0.54,1.63,0.69,2.5c0.15,0.88-0.57,1.14-0.75,1.74c-0.35,1.23-0.97,0.12-1.46,0.13
			c-0.35,0.01-0.72-0.02-1.06-0.11c-0.5-0.14-1.25,0.71-1.48-0.23c-0.14-0.56-0.65-0.78-0.77-1.39c-0.18-0.94-0.83-1.77-1.68-2.29
			c-1.27-0.78-2.15-1.57-2.2-3.33c-0.04-1.86-0.58-3.72-1.29-5.53c-0.75-1.89-1.57-3.71-2.56-5.48c0.47-0.48,0.93-0.98,1.43-1.43
			c1.88-1.69,3.77-3.35,5.66-5.03c0,0-0.02,0.01-0.02,0.01c0.11-0.03,0.22-0.06,0.32-0.1c5.34-3.87,11.1-7,17.05-9.82
			c1.11-0.46,2.21-0.92,3.32-1.38c4.25-1.48,8.56-2.76,12.96-3.74c4.75-0.8,9.52-1.33,14.35-1.31c2.97,0.09,5.95,0.17,8.91,0.5
			c2.48,0.28,4.95,0.63,7.43,0.95c3.26,0.79,6.53,1.51,9.72,2.54c1.4,0.55,2.81,1.11,4.21,1.66c4.68,1.84,9.04,4.3,13.37,6.83
			c0.71,0.5,1.42,1,2.13,1.5c0.06,1.78-0.6,3.43-0.86,5.16c-0.37,2.5-0.46,4.98-0.07,7.47c0.41,2.59,1.68,4.51,4.45,5.08
			c0.64,0.13,0.75,0.4,0.58,1.08c-0.39,1.52-0.26,3.15-0.8,4.65c-0.14,0.39-0.18,0.93-0.63,1.06c-0.5,0.15-0.59-0.43-0.85-0.7
			c-1.21-1.28-2.48-2.69-4.13-3.15c-2.72-0.75-5.55-1.87-8.41-0.34c-0.09-0.08-0.17-0.17-0.26-0.24
			c-9.82-7.17-20.9-10.55-32.97-10.72C290.55,329.76,281.16,331.76,272.4,336.36z"/>
		<path class="st2" d="M342.22,319.05c-4.33-2.52-8.69-4.99-13.37-6.83c-1.4-0.55-2.81-1.1-4.21-1.66c0.1-0.12,0.29-0.25,0.28-0.36
			c-0.2-2.87,2.02-3.57,4.02-4.38c2.1-0.85,3.89-0.23,5.72,1.08c1.53,1.1,3.06,2.21,4.33,3.54c1.4,1.46,2.35,3.35,3.49,5.05
			c0.13,0.19,0.3,0.47,0.13,0.67C341.86,317.06,342.38,318.1,342.22,319.05z"/>
		<path class="st1" d="M372.08,470.6c4.31-0.26,8.33-0.35,12.32-0.77c6.67-0.71,13.02-2.32,18.34-6.71
			c1.63-1.35,3.05-2.89,4.49-4.72c0.05,1.07-0.32,1.8-0.66,2.53c-1.35,2.88-3.58,4.97-6.22,6.62c-7.09,4.41-14.74,6.29-23.07,4.93
			C375.55,472.18,373.9,471.6,372.08,470.6z"/>
		<path class="st1" d="M187.06,457.89c2.8,4.28,6.56,7.36,11.31,9.21c3.7,1.44,7.54,2.26,11.48,2.73c4.01,0.48,8.04,0.51,12.26,0.72
			c-1.25,0.91-2.53,1.35-3.85,1.67c-6.91,1.68-13.46,0.36-19.79-2.48c-3.94-1.77-7.43-4.18-9.87-7.87
			C187.82,460.67,187.24,459.37,187.06,457.89z"/>
		<path class="st1" d="M412.51,414.74c0.76,2.31,0.63,4.62-0.21,6.79c-3.87,9.95-10.79,16.63-21.24,19.42
			c-0.65,0.17-1.34,0.17-2.02,0.24c-0.14,0.02-0.29,0-0.81,0c1.7-1.06,3.1-1.93,4.49-2.81c3.81-2.42,7.56-4.9,10.88-7.99
			C408.22,426.1,411.09,420.84,412.51,414.74z"/>
		<path class="st1" d="M206.11,441.05c-10.93,0.58-25.72-14.16-24.55-25.49c0.1,0.06,0.25,0.1,0.26,0.17
			c2.03,7.84,6.95,13.58,13.3,18.28c3.11,2.3,6.41,4.32,9.73,6.31C205.19,440.5,205.52,440.7,206.11,441.05z"/>
		<path class="st1" d="M359.2,480.16c10.06,3.32,19.97,2.7,29.96-1.2c-0.81,1.56-1.96,2.36-3.16,3.04
			c-3.11,1.76-6.53,2.53-10.06,2.82c-4.22,0.35-8.37,0.06-12.35-1.58C361.92,482.55,360.42,481.59,359.2,480.16z"/>
		<path class="st1" d="M410.69,439.37c-3.23,9.7-17.72,18.1-27,15.71C394.51,452.87,402.99,447.07,410.69,439.37z"/>
		<path class="st1" d="M205.18,478.97c9.79,3.63,19.4,4.77,29.53,1.47c-1.35,1.57-2.75,2.46-4.31,3.06
			c-5.13,1.99-10.38,1.88-15.67,0.8c-2.59-0.53-5.07-1.38-7.26-2.92C206.65,480.81,205.93,480.15,205.18,478.97z"/>
		<path class="st1" d="M184.03,440.03c7.66,7.12,16.03,12.94,26.62,15.02C202.47,457.42,187.48,449.91,184.03,440.03z"/>
		<path class="st1" d="M358.32,491.73c-7.11,4.08-18.44-0.25-21.91-8.39c3.55,2.06,6.45,4.8,10.17,6.18
			C350.32,490.9,354.33,490.88,358.32,491.73z"/>
		<path class="st1" d="M236.31,491.75c3.85-0.97,7.87-0.8,11.59-2.23c3.68-1.42,6.61-4.08,10.03-6.12
			C254.57,491.61,243.09,495.83,236.31,491.75z"/>
		<path class="st2" d="M284.23,307.88c-4.4,0.97-8.71,2.25-12.96,3.74c0.13-1.73,1.06-2.75,2.75-3.14c1.55-0.36,3.03-0.89,4.42-1.72
			C280.03,305.81,282.55,306.36,284.23,307.88z"/>
		<path class="st2" d="M314.92,308.03c-2.48-0.32-4.95-0.68-7.43-0.95c-2.96-0.33-5.94-0.41-8.91-0.5c3.14-1.17,6.37-1.43,9.7-1.12
			C310.78,305.68,312.98,306.47,314.92,308.03z"/>
		<path class="st0" d="M246.24,364.72c0.97,0.2,1.73,0.74,2.39,1.44c1.18,1.25,2.56,2.34,4.17,2.79c1.31,0.37,2.62,0.83,4.01,1.07
			c3.11,0.53,6.22,0.48,9.34,0.63c1.46,0.07,2.58-0.97,4.03-0.82c0.49,0.05,0.5-0.68,0.05-0.92c-0.9-0.48-1.37-1.14-1-2.13
			c0.35-0.94,0.8-1.77,2.11-1.72c0.87,0.03,1.36-0.73,1.62-1.51c0.67-2,1.39-2.35,3.25-1.47c1.4,0.66,2.91,0.89,4.38,1.29
			c0.55,0.15,1,0.47,1.52,0.64c0.55,0.18,1.36,0.15,1.42,0.81c0.07,0.75-0.4,1.41-1.4,1.8c0.45,0.13,0.73,0.18,0.99,0.28
			c1.29,0.5,1.18,0.43,0.41,1.59c-0.43,0.65-0.53,1.57-0.62,2.38c-0.05,0.5-0.1,0.73-0.64,0.73c-0.96,0-1.8,0.01-2.5-0.97
			c-0.54-0.76-1.72,0.09-1.81,0.39c-0.3,1.09-1.38,1.52-1.76,2.53c-0.38,1-0.17,1.19,0.79,1.18c1.18-0.02,1.19,0.03,0.57,1.04
			c-0.2,0.32,0.05,0.44,0.21,0.57c0.42,0.35,0.85,0.72,1.33,0.98c0.45,0.24,0.62,0.51,0.75,1.04c0.23,0.9,1.23,0.92,1.96,1.22
			c1.4,0.57,2.99,0.63,4.24,1.58c0.03,0.02,0.07,0.07,0.1,0.07c1.52-0.12,2.8,0.71,4.2,1.05c1.38,0.34,2.72,0.82,4.19,0.91
			c1.11,0.07,2.18,0.04,3.28,0.02c1.55-0.03,3-0.64,4.65-0.35c1.35,0.23,2.85-0.26,4.26-0.58c1.57-0.35,3.18-0.46,4.74-0.92
			c1.72-0.5,3.52-0.76,4.66-2.34c0.47-0.65,1.23-0.46,1.83-0.72c0.87-0.37,1.41-0.93,2.05-1.63c1.06-1.15,0.79-1.19-0.46-1.47
			c-0.62-0.14-0.57-1.05-0.35-1.48c0.91-1.81,0.68-3.72,0.62-5.6c-0.03-1.02,0.33-1.51,1.26-1.84c1.08-0.38,2.09-0.87,3.31-0.84
			c0.99,0.02,1.56,0.79,2.45,1c1.02,0.25,1.98,0.77,3.07,0.74c0.49-0.01,0.54,0.29,0.59,0.69c0.26,1.88-0.17,3.37-2.12,4.1
			c-0.07,0.03-0.12,0.09-0.27,0.21c1.37,0.46,2.47,1.36,3.83,1.73c0.44,0.12,0.86,0.19,1.13,0.71c0.13,0.25,0.6,0.61,1.03,0.45
			c1.6-0.59,3.3-0.16,4.95-0.59c1.8-0.47,3.56-1.01,5.16-1.92c1.3-0.73,2.77-1.27,3.71-2.5c0.81-1.07,1.57-2.19,2.22-3.36
			c0.4-0.72,0.74-1.48,0.82-2.39c0.06-0.66,0.34-1.26-0.01-1.92c-0.19-0.37,0.07-0.68,0.26-0.99c4.1,8.64,6.44,17.73,6.02,27.29
			c-0.98,22.42-11.5,39.08-31.31,49.65c-9.51,5.07-19.83,7.25-30.63,6.51c-11.24-0.77-21.36-4.72-30.33-11.47
			c-10.89-8.18-18.43-18.73-21.66-32.04c-2.99-12.31-2.21-24.44,2.69-36.22C246.06,364.98,246.16,364.85,246.24,364.72z"/>
		<path class="st0" d="M272.4,336.36c8.77-4.6,18.16-6.6,28-6.46c12.08,0.18,23.16,3.55,32.97,10.72c0.09,0.07,0.17,0.16,0.26,0.24
			c-1.74,1.12-3.42,2.31-5.22,3.32c-1.17,0.65-1.67,1.99-2.91,2.52c-0.25,0.11-0.26,0.47-0.27,0.76c0,0.23,0.06,0.61-0.06,0.68
			c-1.33,0.81-0.83,2.09-0.89,3.23c-0.01,0.12,0.01,0.27-0.05,0.35c-1.06,1.34-0.65,3.1-1.26,4.51c-0.53,1.21-0.65,2.38-0.73,3.63
			c-0.03,0.47-0.29,0.9-0.61,1.28c-0.18,0.21-0.29,0.52-0.64,0.43c-0.28-0.07-0.31-0.35-0.32-0.59c-0.1-1.96-1.64-3.08-2.65-4.51
			c-0.18-0.26-0.48-0.49-0.52-0.77c-0.21-1.23-1.11-1.7-2.12-2.01c-0.44-0.14-0.87-0.28-1.09-0.66c-0.25-0.41-0.47-0.59-0.95-0.38
			c-0.3,0.13-0.53-0.08-0.71-0.31c-0.41-0.51-0.93-0.7-1.59-0.65c-0.37,0.03-0.7-0.09-0.97-0.38c-0.29-0.32-0.67-0.4-1.09-0.39
			c-2.16,0.01-4.33,0.03-6.49,0.02c-0.9,0-1.75,0.56-2.69,0.17c-0.21-0.09-0.42,0.15-0.56,0.37c-0.12,0.2-0.28,0.54-0.42,0.54
			c-2.03,0.04-3.36,1.66-5.14,2.31c-0.99,0.36-2.15,1.01-2.72,2.14c-0.07,0.14-0.13,0.41-0.21,0.41c-1.61,0.11-1.97,1.86-3.22,2.45
			c-0.47,0.22-0.85,0.57-0.82,1.2c0.02,0.48-0.24,0.85-0.67,1.04c-0.5,0.23-0.67,0.59-0.7,1.13c-0.04,0.64-0.51,1.19-1.11,0.88
			c-1.73-0.91-3.78-0.71-5.47-1.79c-0.57-0.37-1.15-0.84-1.95-0.98c-0.69-0.13-0.56-0.97-0.11-1.33c1.36-1.06,1.78-2.7,2.64-4.07
			c0.37-0.6,0.57-1.3,0.54-2.05c-0.04-1.06-0.02-2.09,0.31-3.16c0.38-1.24-0.32-2.46-0.77-3.63c-0.5-1.31-1.02-2.65-1.74-3.84
			c-0.89-1.47-1.94-2.84-3.09-4.13C273.9,337.82,272.84,337.4,272.4,336.36z"/>
		<path class="st1" d="M237.12,354.86c-0.09-1.4,1.18-2.2,1.56-3.39c0.77-2.39,2.63-2.76,4.78-2.95c1.7-0.15,3.39-0.43,5.11-0.3
			c0.36,0.03,0.74-0.01,1.03,0.22c0.3,0.23,0.84,0.32,0.8,0.79c-0.04,0.52-0.51,0.64-0.97,0.68c-0.15,0.01-0.29,0.07-0.44,0.1
			c0.4,1.56-0.71,0.74-1.26,0.79c-0.68,0.06-1.02,0.68-1.52,1c-1.38,0.86-2.6,1.96-3.41,3.47c-0.34,0.63-0.78,1.26-1.49,1.64
			c-0.55,0.3-0.79,0.4-1.14-0.33c-0.41-0.82-1.45-0.77-2.25-0.81C237.22,355.72,236.98,355.53,237.12,354.86z"/>
		<path class="st1" d="M241.8,348.28c-0.9,0.05-1.21-0.02-1.22-1.21c-0.01-1.43,0.71-2.77,0.32-4.2c-0.07-0.24-0.08-0.61,0.25-0.72
			c0.31-0.1,0.5,0.19,0.68,0.4c0.15,0.18,0.23,0.42,0.38,0.61c0.89,1.09,1.58,2.37,3.42,2.04c1.02-0.19,2.29,1.07,2.34,1.91
			c0.02,0.38-0.07,0.66-0.48,0.65C245.56,347.68,243.68,348.01,241.8,348.28z"/>
		<path class="st0" d="M250.59,322.9c-1.89,1.67-3.78,3.34-5.66,5.03c-0.5,0.45-0.95,0.95-1.43,1.43c-0.78-0.76-0.64-1.27,0.21-2
			c1.4-1.21,2.73-2.49,4.3-3.5C248.81,323.35,249.56,322.77,250.59,322.9z"/>
		<path class="st0" d="M250.9,322.82c-0.11,0.03-0.22,0.06-0.32,0.1C250.59,322.58,250.76,322.75,250.9,322.82z"/>
	</g>
</g>
</svg>
